<svg height="511pt" viewBox="-52 0 511 511.98748"  xmlns="http://www.w3.org/2000/svg" id="fi_1713970"><path d="m399.332031 248.851562c-4.902343 38.625-13.023437 76.777344-24.277343 114.050782-6.195313 20.816406-13.925782 41.148437-23.128907 60.824218-17.476562 35.308594-95.953125 79.445313-130.734375 79.445313h-17.65625v-494.34375h17.65625c210.539063.351563 191.027344 142.742187 178.140625 240.023437zm0 0" fill="#cad0d7"></path><path d="m221.191406 8.828125v494.257813c.019532 2.554687-1.066406 4.992187-2.976562 6.683593-1.914063 1.695313-4.464844 2.476563-7 2.144531-23.472656-4.46875-44.675782-16.914062-60.027344-35.222656-2.515625-2.800781-5.578125-5.054687-9.003906-6.621094-15.007813-7.328124-55.878906-28.601562-67.796875-49.964843-13.238281-23.746094-12.445313-59.234375-12.179688-65.941407.070313-.347656.101563-.703124.085938-1.058593-5.972657.105469-11.925781-.699219-17.652344-2.382813-12.613281-2.628906-21.621094-13.78125-21.539063-26.660156-.03125-10.542969-2.320312-20.957031-6.710937-30.542969-1.855469-4.238281-4.414063-9.09375-7.328125-14.65625-15.800781-27.894531-7.765625-49.082031 8.035156-56.40625.289063-.132812.582032-.25.882813-.355469 2.097656-.882812 4.289062-1.535156 6.53125-1.941406 6.832031-1.0625 13.828125-.113281 20.128906 2.738282.085937 0 .175781.085937.261719.085937-3.792969-6.265625-60.554688-217.597656 167.285156-222.984375 2.367188-.03125 4.648438.882812 6.335938 2.542969 1.691406 1.65625 2.652343 3.917969 2.667968 6.285156zm0 0" fill="#a38671"></path><path d="m327.121094 238.34375c0 19.503906-15.808594 35.3125-35.308594 35.3125-19.503906 0-35.3125-15.808594-35.3125-35.3125 0-19.5 15.808594-35.308594 35.3125-35.308594 19.5 0 35.308594 15.808594 35.308594 35.308594zm0 0" fill="#3aadd9"></path><path d="m221.191406 388.414062h52.964844c9.75 0 17.65625 7.90625 17.65625 17.65625s-7.90625 17.65625-17.65625 17.65625h-52.964844zm0 0" fill="#fff"></path><path d="m185.878906 247.171875s-21.730468 35.3125-48.550781 35.3125c-26.816406 0-48.550781-35.3125-48.550781-35.3125s21.734375-35.308594 48.550781-35.308594c26.820313 0 48.550781 35.308594 48.550781 35.308594zm0 0" fill="#fff"></path><path d="m405.421875 141.242188h-184.230469v-132.414063c138.945313.265625 177.699219 62.324219 184.230469 132.414063zm0 0" fill="#66d4f1"></path><path d="m17.980469 222.101562c.128906.304688.273437.597657.441406.882813l-1.324219-.527344c.289063-.132812.582032-.25.882813-.355469zm0 0" fill="#937661"></path><path d="m221.191406 8.828125v494.257813c.019532 2.554687-1.066406 4.992187-2.976562 6.683593-1.914063 1.695313-4.464844 2.476563-7 2.144531-6.011719-.851562-11.90625-2.390624-17.566406-4.59375.710937-1.296874 1.074218-2.753906 1.058593-4.234374v-494.257813c-.019531-3.132813-1.699219-6.023437-4.414062-7.589844 6.976562-.621093 14.300781-1.0625 21.894531-1.238281 2.367188-.03125 4.648438.882812 6.335938 2.542969 1.691406 1.65625 2.652343 3.917969 2.667968 6.285156zm0 0" fill="#937661"></path><path d="m159.398438 247.171875c0 12.191406-9.882813 22.070313-22.070313 22.070313s-22.070313-9.878907-22.070313-22.070313c0-12.1875 9.882813-22.066406 22.070313-22.066406s22.070313 9.878906 22.070313 22.066406zm0 0" fill="#66d4f1"></path><path d="m150.570312 247.171875c0 7.3125-5.929687 13.242187-13.242187 13.242187s-13.242187-5.929687-13.242187-13.242187 5.929687-13.238281 13.242187-13.238281 13.242187 5.925781 13.242187 13.238281zm0 0" fill="#424852"></path><path d="m399.332031 248.851562c-4.902343 38.625-13.023437 76.777344-24.277343 114.050782-6.195313 20.816406-13.925782 41.148437-23.128907 60.824218-17.476562 35.308594-95.953125 79.445313-130.734375 79.445313v-5.296875c38.3125-12.710938 90.394532-46.167969 104.253906-74.148438 9.199219-19.675781 16.929688-40.007812 23.128907-60.824218 11.25-37.273438 19.371093-75.425782 24.273437-114.050782 6.027344-35.53125 8.070313-71.625 6.09375-107.609374h26.480469c1.980469 35.984374-.0625 72.078124-6.089844 107.609374zm0 0" fill="#a9b0bb"></path><path d="m405.421875 141.242188h-26.480469c0-.351563-.089844-.707032-.089844-1.058594-.175781-1.855469-.351562-3.707032-.617187-5.472656-.265625-1.765626-.441406-3.621094-.707031-5.472657l-1.324219-7.417969c-.351563-2.117187-.882813-4.324218-1.324219-6.355468-6.699218-33.535156-27.378906-62.625-56.847656-79.976563-1.855469-1.058593-3.710938-2.121093-5.738281-3.179687-1.855469-.96875-3.796875-1.941406-5.828125-2.910156-1.324219-.621094-2.734375-1.238282-4.148438-1.855469-1.414062-.617188-3.089844-1.324219-4.679687-2.03125-2.382813-.96875-4.941407-1.941407-7.503907-2.824219-.351562-.089844-.617187-.265625-.96875-.351562-2.382812-.796876-4.855468-1.589844-7.328124-2.386719-3.175782-.96875-6.355469-1.851563-9.710938-2.644531-2.558594-.707032-5.296875-1.324219-8.03125-1.855469l-1.324219-.265625c-3.179687-.707032-6.445312-1.324219-9.710937-1.851563h-.265625c-3.441407-.621093-6.886719-1.148437-10.503907-1.589843-3.621093-.441407-7.328124-.882813-11.125-1.238282-2.824218-.261718-5.824218-.527344-8.824218-.703125-.378906-.078125-.765625-.109375-1.148438-.089843v-.882813c2.734375 0 5.472656 0 8.121094.089844 2.03125 0 4.058594.085937 6.089844.175781h1.058594l9.625.527344c.882812 0 1.851562.089844 2.734374.179687 3.003907.175781 6.003907.441407 8.828126.703125 3.796874.355469 7.503906.796875 11.121093 1.238282 3.621094.441406 7.0625.96875 10.507813 1.589843h.265625c3.265625.527344 6.53125 1.144531 9.707031 1.851563l1.324219.265625c2.738281.617187 5.386719 1.234375 8.035156 1.855469 3.355469.792968 6.53125 1.675781 9.710937 2.644531 2.46875.796875 4.941407 1.589843 7.324219 2.386719.355469.085937.621094.261718.972657.351562 2.558593.882812 5.121093 1.855469 7.503906 2.824219 1.589844.707031 3.175781 1.324219 4.679687 2.03125 1.5.707031 2.824219 1.234375 4.148438 1.855469 2.027343.96875 3.972656 1.941406 5.824219 2.910156 2.03125 1.058594 3.886718 2.121094 5.738281 3.179687 29.472656 17.351563 50.148437 46.441407 56.851562 79.976563.441407 2.121094.882813 4.148437 1.324219 6.355468l1.324219 7.417969c.261719 1.851563.441406 3.617188.703125 5.472657.265625 1.851562.441406 3.617187.621094 5.472656 0 .351562.085937.707031.085937 1.058594zm0 0" fill="#4fc0e8"></path><path d="m309.464844 238.34375c0 9.753906-7.902344 17.65625-17.652344 17.65625s-17.65625-7.902344-17.65625-17.65625c0-9.75 7.90625-17.652344 17.65625-17.652344s17.652344 7.902344 17.652344 17.652344zm0 0" fill="#66d4f1"></path><path d="m194.707031 389.386719v18.09375c-10.753906 3.554687-20.996093 8.511719-30.453125 14.742187-1.421875.996094-3.121094 1.523438-4.855468 1.503906-3.871094-.03125-7.273438-2.582031-8.386719-6.289062s.316406-7.707031 3.53125-9.867188c12.269531-8.277343 25.847656-14.425781 40.164062-18.183593zm0 0" fill="#937661"></path><path d="m221.191406 394.683594v20.214844c-2.339844-.027344-4.582031-.941407-6.269531-2.5625-3.0625-3.207032-7.035156-5.394532-11.386719-6.265626-2.992187.078126-5.960937.554688-8.828125 1.410157v-18.09375c2.902344-.621094 5.859375-.945313 8.828125-.972657 6.371094.316407 12.511719 2.496094 17.65625 6.269532zm0 0" fill="#876a57"></path><path d="m194.707031 335.449219v26.394531c-3.230469-2.59375-5.75-5.964844-7.324219-9.800781-11.335937-3.261719-19.144531-13.625-19.15625-25.421875 0-4.875 3.949219-8.828125 8.828126-8.828125 4.875 0 8.824218 3.953125 8.824218 8.828125 0 2.339844.929688 4.585937 2.585938 6.242187s3.902344 2.585938 6.242187 2.585938zm0 0" fill="#937661"></path><path d="m221.191406 353.105469v17.652343c-9.609375.289063-19.003906-2.875-26.484375-8.914062v-26.394531c4.875 0 8.828125 3.953125 8.828125 8.828125 0 3.617187 6.886719 8.828125 17.65625 8.828125zm0 0" fill="#876a57"></path><path d="m42.519531 247.613281c-4.726562 1.167969-9.507812-1.714843-10.679687-6.441406-1.882813-7.1875-4.332032-14.214844-7.328125-21.011719 6.832031-1.0625 13.828125-.113281 20.128906 2.738282 1.695313 4.59375 3.140625 9.28125 4.324219 14.035156 1.164062 4.726562-1.71875 9.507812-6.445313 10.679687zm0 0" fill="#937661"></path><path d="m62.292969 326.621094v26.484375c-5.972657.105469-11.925781-.699219-17.652344-2.382813v-24.101562c0-4.875 3.949219-8.828125 8.824219-8.828125 4.878906 0 8.828125 3.953125 8.828125 8.828125zm0 0" fill="#937661"></path><path d="m265.328125 353.105469h-8.828125c-4.875 0-8.828125-3.953125-8.828125-8.828125s3.953125-8.828125 8.828125-8.828125h8.828125c4.875 0 8.828125 3.953125 8.828125 8.828125s-3.953125 8.828125-8.828125 8.828125zm0 0" fill="#a9b0bb"></path><g fill="#fff"><path d="m256.5 114.757812c-.722656 0-1.441406-.089843-2.144531-.261718-4.726563-1.183594-7.605469-5.972656-6.425781-10.699219l5.015624-20.03125c2.050782-8.21875 8.472657-14.632813 16.691407-16.675781l11.203125-2.804688c4.710937-1.148437 9.46875 1.726563 10.644531 6.429688 1.179687 4.707031-1.660156 9.480468-6.355469 10.695312l-11.195312 2.796875c-1.902344.472657-3.390625 1.960938-3.863282 3.867188l-5.007812 20.011719c-.984375 3.925781-4.515625 6.675781-8.5625 6.671874zm0 0"></path><path d="m333.867188 114.757812h-15.574219c-4.875 0-8.828125-3.949218-8.828125-8.824218 0-4.878906 3.953125-8.828125 8.828125-8.828125h15.574219c3.34375.011719 6.40625-1.882813 7.890624-4.882813l3.945313-7.890625c2.179687-4.363281 7.484375-6.136719 11.847656-3.957031s6.132813 7.484375 3.953125 11.847656l-3.953125 7.945313c-4.476562 8.972656-13.65625 14.628906-23.683593 14.589843zm0 0"></path><path d="m265.328125 52.964844h-8.828125c-4.875 0-8.828125-3.949219-8.828125-8.824219 0-4.878906 3.953125-8.828125 8.828125-8.828125h8.828125c4.875 0 8.828125 3.949219 8.828125 8.828125 0 4.875-3.953125 8.824219-8.828125 8.824219zm0 0"></path><path d="m327.121094 70.621094h-8.828125c-4.875 0-8.828125-3.953125-8.828125-8.828125s3.953125-8.828125 8.828125-8.828125h8.828125c4.875 0 8.828125 3.953125 8.828125 8.828125s-3.953125 8.828125-8.828125 8.828125zm0 0"></path></g></svg>