<svg id="fi_10129225" enable-background="new 0 0 512.002 512.002"  viewBox="0 0 512.002 512.002" xmlns="http://www.w3.org/2000/svg"><g><g clip-rule="evenodd" fill-rule="evenodd"><g><path d="m216.001 216.001h80.001v80.001h-80.001z" fill="#d5ea79"></path><path d="m170 352.002h-140c-11 0-20 9-20 20v80.001c0 11 9.005 19.999 20 20h4.999l30 30 30-30h75c11 0 20-9.002 20-20v-80.001c.001-10.999-8.999-20-19.999-20z" fill="#c193dc"></path><path d="m342.002 130h75l30 30 30-30h4.999c10.996-.001 20-9 20-20v-80c0-11-9-20-20-20h-140c-11 0-20 9.002-20 20v80c.001 10.998 9.001 20 20.001 20z" fill="#ffee80"></path></g><g fill="#33d6f5"><circle cx="32.5" cy="192.859" r="22.5"></circle><circle cx="479.502" cy="319.143" r="22.5"></circle></g></g><g><path d="m256.005 266.001c5.522 0 10-4.477 10-10s-4.478-10-10-10h-.008c-5.522 0-9.996 4.477-9.996 10s4.481 10 10.004 10z"></path><path d="m145 422.002h-90c-5.522 0-10 4.477-10 10s4.478 10 10 10h90c5.522 0 10-4.477 10-10s-4.478-10-10-10z"></path><path d="m45 392.001c0 5.523 4.478 10 10 10h90c5.522 0 10-4.477 10-10s-4.478-10-10-10h-90c-5.522 0-10 4.478-10 10z"></path><path d="m342.002 140h70.857l27.071 27.071c1.875 1.875 4.419 2.929 7.071 2.929s5.196-1.054 7.071-2.929l27.073-27.071h.857c16.542 0 30-13.458 30-30v-80c0-16.542-13.458-30-30-30h-140c-16.542 0-30 13.458-30 30v30h-36.001c-5.522 0-10 4.477-10 10v136.001h-20v-30c0-5.523-4.478-10-10-10s-10 4.477-10 10v30h-10c-5.522 0-10 4.477-10 10v10h-51.858l-40.213-40.213c-1.876-1.875-4.419-2.929-7.071-2.929h-43.433c-4.228-13.043-16.493-22.5-30.926-22.5-17.921 0-32.5 14.58-32.5 32.5s14.579 32.5 32.5 32.5c14.433 0 26.699-9.457 30.926-22.5h39.29l40.213 40.213c1.876 1.875 4.419 2.929 7.071 2.929h56.001v20h-56.001c-5.522 0-10 4.477-10 10s4.478 10 10 10h56.001v10c0 5.523 4.478 10 10 10h10v96h-26.001v-30c0-16.542-13.458-30-30-30h-25.003c-5.522 0-10 4.477-10 10s4.478 10 10 10h25.003c5.514 0 10 4.486 10 10v80c0 5.514-4.486 10-10 10h-75c-2.652 0-5.195 1.054-7.071 2.929l-22.929 22.93-22.929-22.929c-1.875-1.875-4.418-2.928-7.07-2.929h-5.001c-5.514 0-10-4.486-10-10v-80c0-5.514 4.486-10 10-10h24.997c5.522 0 10-4.477 10-10s-4.478-10-10-10h-24.997c-16.542 0-30 13.458-30 30v80c0 16.541 13.458 29.999 29.999 30h.858l27.071 27.072c1.876 1.875 4.419 2.929 7.071 2.929s5.196-1.054 7.071-2.929l27.071-27.072h70.859c16.542 0 30-13.458 30-30v-30h36.001c5.522 0 10-4.477 10-10v-106h20v30c0 5.523 4.478 10 10 10s10-4.477 10-10v-30h10c5.522 0 10-4.477 10-10v-10h51.858l40.213 40.213c1.876 1.875 4.419 2.929 7.071 2.929h43.432c4.228 13.043 16.493 22.5 30.926 22.5 17.921 0 32.5-14.58 32.5-32.5s-14.579-32.5-32.5-32.5c-14.433 0-26.699 9.457-30.926 22.5h-39.29l-40.213-40.213c-1.876-1.875-4.419-2.929-7.071-2.929h-56.001v-20h56.001c5.522 0 10-4.477 10-10s-4.478-10-10-10h-56.001v-10c0-5.523-4.478-10-10-10h-10v-126.002h26.001v30c.001 16.542 13.459 30 30.001 30zm-309.502 65.359c-6.893 0-12.5-5.607-12.5-12.5s5.607-12.5 12.5-12.5 12.5 5.607 12.5 12.5-5.607 12.5-12.5 12.5zm447.002 101.284c6.893 0 12.5 5.607 12.5 12.5s-5.607 12.5-12.5 12.5-12.5-5.607-12.5-12.5 5.607-12.5 12.5-12.5zm-193.501-20.642h-60v-60h60zm46.001-256.001c0-5.514 4.486-10 10-10h140c5.514 0 10 4.486 10 10v80c0 5.514-4.486 9.999-10.001 10h-5c-2.652 0-5.195 1.054-7.07 2.929l-22.929 22.929-22.929-22.93c-1.876-1.875-4.419-2.929-7.071-2.929h-75c-5.514 0-10-4.486-10-10z"></path><path d="m367.002 100h90c5.522 0 10-4.477 10-10s-4.478-10-10-10h-90c-5.522 0-10 4.477-10 10s4.477 10 10 10z"></path><path d="m367.002 60h90c5.522 0 10-4.477 10-10s-4.478-10-10-10h-90c-5.522 0-10 4.477-10 10s4.477 10 10 10z"></path><path d="m110 352.001c0-5.523-4.478-10-10-10h-.007c-5.522 0-9.996 4.477-9.996 10s4.48 10 10.003 10 10-4.477 10-10z"></path></g></g></svg>