<svg id="fi_2889137" enable-background="new 0 0 555.82 555.82" fill="currentColor" viewBox="0 0 555.82 555.82" xmlns="http://www.w3.org/2000/svg"><g><g id="_x32_9_performance_21_"><g><path d="m115.577 354.199h-65.391c-17.982 0-32.695 14.713-32.695 32.695v158.027c0 5.994 4.904 10.898 10.898 10.898h108.984c5.994 0 10.898-4.904 10.898-10.898v-158.026c.001-17.983-14.711-32.696-32.694-32.696zm10.899 179.824h-87.188v-147.128c0-5.994 4.904-10.898 10.898-10.898h65.391c5.994 0 10.898 4.904 10.898 10.898v147.128z"></path><path d="m300.851 267.012h-65.391c-17.982 0-32.695 14.713-32.695 32.695v245.215c0 5.994 4.904 10.898 10.898 10.898h108.984c5.994 0 10.898-4.904 10.898-10.898v-245.215c.001-17.982-14.712-32.695-32.694-32.695zm10.898 267.011h-87.188v-234.316c0-5.994 4.904-10.898 10.898-10.898h65.391c5.994 0 10.898 4.904 10.898 10.898v234.316z"></path><path d="m486.124 223.418h-65.391c-17.982 0-32.695 14.713-32.695 32.695v288.809c0 5.994 4.904 10.898 10.898 10.898h108.984c5.994 0 10.898-4.904 10.898-10.898v-288.809c.001-17.982-14.712-32.695-32.694-32.695zm10.898 310.605h-87.188v-277.91c0-5.994 4.904-10.898 10.898-10.898h65.391c5.994 0 10.898 4.904 10.898 10.898v277.91z"></path><path d="m537.783 61.685c-1.308-3.923-4.686-6.866-8.828-7.411l-45.773-6.648-20.49-41.523c-1.852-3.705-5.667-6.103-9.808-6.103s-7.956 2.398-9.809 6.103l-20.489 41.523-45.773 6.648c-4.141.545-7.52 3.487-8.828 7.411s-.218 8.283 2.725 11.225l31.279 30.516-99.83 44.03c-7.847-10.136-20.162-16.675-34.003-16.675-24.086 0-43.594 19.508-43.594 43.594 0 2.398.218 4.795.545 7.084l-108.113 47.626c-7.956-10.027-20.271-16.566-34.112-16.566-24.086 0-43.594 19.508-43.594 43.594s19.508 43.594 43.594 43.594 43.594-19.508 43.594-43.594c0-2.398-.218-4.795-.545-7.084l108.112-47.626c7.956 10.027 20.271 16.566 34.112 16.566 24.086 0 43.594-19.508 43.594-43.594 0-2.398-.218-4.795-.545-7.084l88.822-39.234-3.923 22.669c-.654 4.141.981 8.174 4.359 10.68 3.379 2.398 7.847 2.725 11.443.872l40.978-21.579 40.978 21.579c1.635.872 3.379 1.199 5.122 1.199 2.289 0 4.468-.654 6.43-2.071 3.379-2.398 5.013-6.539 4.359-10.68l-7.847-45.664 33.131-32.259c2.945-2.835 4.034-7.194 2.727-11.118zm-454.901 216.225c-11.988 0-21.797-9.809-21.797-21.797s9.809-21.797 21.797-21.797 21.797 9.809 21.797 21.797-9.809 21.797-21.797 21.797zm185.273-81.738c-11.988 0-21.797-9.809-21.797-21.797s9.809-21.797 21.797-21.797 21.797 9.809 21.797 21.797-9.809 21.797-21.797 21.797zm214.372-102.663c-2.616 2.507-3.705 6.103-3.161 9.7l5.013 29.535-26.483-13.95c-1.635-.872-3.379-1.199-5.122-1.199-1.744 0-3.487.436-5.122 1.199l-26.483 13.95 3.596-20.816 1.526-8.719c.654-3.487-.545-7.193-3.161-9.7l-21.47-20.925 29.644-4.25c3.596-.545 6.648-2.725 8.174-5.994l13.296-26.81 13.296 26.81c1.635 3.27 4.686 5.449 8.174 5.994l29.644 4.25z"></path></g></g></g></svg>