<svg viewBox="0 0 58 52" xmlns="http://www.w3.org/2000/svg" id="fi_2013188"><g id="011---Mental-Health" fill="none"><path id="Path" d="m29 51.5c-.0000288.2013084-.120781.3829665-.3063838.4609196-.1856027.0779532-.3998532.0369963-.5436162-.1039196l-23.365-23.637c-6.37995789-6.4837143-6.37995789-16.8862857 0-23.37 3.03349387-3.10173916 7.1889667-4.85013111 11.5275-4.85013111s8.4940061 1.74839195 11.5275 4.85013111l1.16 1.176z" fill="#ee3a48"></path><path id="Path" d="m56.97 26.42c.0199665.1926889.0299798.3862794.03.58-.0036837 2.9518194-2.1538522 5.4624699-5.07 5.92-.027055-.0016231-.054177.0017672-.08.01-.2809442.0465239-.5652298.0699357-.85.07h-.09c.1200121.6612656.1200121 1.3387344 0 2-.4275878 2.5485676-2.4448678 4.533571-5 4.92-.2999275.0567946-.6047636.0835933-.91.08-.3690588.0028213-.7375001-.0306733-1.1-.1.0420148.2212322.0687447.4450951.08.67.01.14.02.28.02.43 0 3.3137085-2.6862915 6-6 6-.3052536.0040507-.6101353-.0227521-.91-.08-.0842603.0004989-.16825-.0095799-.25-.03.1090291.3598087.1629733.7340468.16 1.11.0024708.2963029-.0311091.5918064-.1.88-.2974042 1.3310557-1.2540886 2.4179892-2.5366179 2.881969-1.2825292.4639797-2.7132018.2407189-3.7933821-.591969-.9949389-.7491381-1.5770998-1.9245841-1.57-3.17v-42c0-1.59129894.632141-3.11742242 1.7573593-4.24264069s2.6513418-1.75735931 4.2426407-1.75735931c.7468468-.00077965 1.4869016.14179972 2.18.42.1132412.03460581.2235821.07807345.33.13.5470963.24696234 1.0503438.58133483 1.49.99 1.0947415-.99401646 2.5213123-1.54324622 4-1.54 1.9489191.00060982 3.7761233.94777281 4.9 2.54.05-.02.09-.04.14-.06.493749-.20177886 1.0112831-.3395639 1.54-.41.14-.02.28-.04.43-.05s.33-.02.49-.02c3.5898509 0 6.5 2.91014913 6.5 6.5-.0124993.82067347-.1681693 1.632865-.46 2.4-.0516237.1369467-.1117405.2705395-.18.4 0 .01-.01.01-.01.02-.2022594.4226153-.4504202.8216848-.74 1.19-.12.15-.25.3-.38.44.0551765.0468011.1155773.0870683.18.12l.01.01c1.5759776 1.0873973 2.5348809 2.8646204 2.5784309 4.7788413s-.8335366 3.7332141-2.3584309 4.8911587c-.0287952.0129907-.0557048.0298093-.08.05-.0601504.0382481-.1141058.0854591-.16.14.15-.1 1.04 1.53 1.1 1.66.0110924.0182422.0179287.0387508.02.06.2395795.5600468.3913631 1.1536894.45 1.76z" fill="#ed75b7"></path><g fill="#d75da6"><path id="Path" d="m45 40c-.3690588.0028213-.7375001-.0306733-1.1-.1.0420148.2212322.0687447.4450951.08.67-.2026623-2.1657766-1.7773727-3.954486-3.9-4.43-.9292588.5616487-1.994196.8590013-3.08.86-.5522847 0-1-.4477153-1-1s.4477153-1 1-1c2.209139 0 4-1.790861 4-4 0-.5522847.4477153-1 1-1s1 .4477153 1 1c.0006568 1.2952588-.4205897 2.5554879-1.2 3.59 2.185803.9639873 3.7333784 2.9709404 4.11 5.33-.2999275.0567946-.6047636.0835933-.91.08z"></path><path id="Path" d="m51 34c.0007205.3353876-.0294064.6701307-.09 1-3.0910316-.0291202-5.7920198-2.0945818-6.63-5.07-1.0717072-.1375314-2.0851493-.5664285-2.93-1.24-.2804535-.223291-.4204789-.5792405-.36733-.9337659s.2913976-.6537657.625-.785c.3336025-.1312344.7118765-.0745251.99233.1487659.82592.6669445 1.8839127.9765843 2.9390942.8601764 1.0551815-.116408 2.0202335-.6492306 2.6809058-1.4801764.2190593-.2915983.5794982-.4408109.9405667-.3893711.3610685.0514399.6654975.2953734.7944088.6365455.1289112.3411722.0618581.7254695-.1749755 1.0028256-.8574959 1.0775959-2.0629887 1.8235167-3.41 2.11.7428266 1.865497 2.5323852 3.1032094 4.54 3.14.0605936.3298693.0907205.6646124.09 1z"></path><path id="Path" d="m56.52 24.66c-1.0156229.968585-2.2967761 1.612643-3.68 1.85-.0562639.0083107-.1131497.011657-.17.01-.5070111-.0181687-.9200752-.4131248-.9609389-.918813s.3034237-.9618444.8009389-1.061187c1.1150426-.1954548 2.1324919-.7587485 2.89-1.6.15-.1 1.04 1.53 1.1 1.66.0110924.0182422.0179287.0387508.02.06z"></path><path id="Path" d="m56.36 11.3c0 .01-.01.01-.01.02-.2022594.4226153-.4504202.8216848-.74 1.19-.12.15-.25.3-.38.44-1.4095107-1.2126447-3.3660586-1.5648999-5.11-.92.5071857.7872681.7778919 1.7035044.78 2.64 0 .5522847-.4477153 1-1 1s-1-.4477153-1-1c-.0049422-1.6548028-1.3451972-2.9950578-3-3-.5522847 0-1-.4477153-1-1s.4477153-1 1-1c.9749739.00192177 1.927849.29056644 2.74.83 2.4922582-1.34997217 5.5575139-1.03232909 7.72.8z"></path><path id="Path" d="m51.17 5.87c0 .55228475-.4477153 1-1 1s-1-.44771525-1-1c.0006294-1.2284184-.4515197-2.41397479-1.27-3.33.05-.02.09-.04.14-.06.493749-.20177886 1.0112831-.3395639 1.54-.41.14-.02.28-.04.43-.05.7596513 1.14002268 1.1634056 2.48006925 1.16 3.85z"></path><path id="Path" d="m38.59 5.88c.283349.28785108.3668381.71736602.2119521 1.09040117-.1548859.37303516-.5180479.6170985-.9219521.61959883-.267019-.00221174-.5222963-.11007539-.71-.3-.7903083-.75022721-2.0296917-.75022721-2.82 0-.3930079.38997787-1.0269921.38997787-1.42 0-.3877236-.39003745-.3877236-1.01996255 0-1.41.5189391-.50714125 1.1706602-.85726798 1.88-1.01.2098468-1.72621817 1.0546929-3.31253261 2.37-4.45.1132412.03460581.2235821.07807345.33.13.5470963.24696234 1.0503438.58133483 1.49.99-1.1561654.77240523-1.941532 1.98845685-2.17 3.36.6632276.16472055 1.2706777.50295981 1.76.98z"></path><path id="Path" d="m37 48c.0024708.2963029-.0311091.5918064-.1.88-.0188947.0081444-.0394852.0115762-.06.01-1.3776087.0032692-2.7249417-.4040641-3.87-1.17-.2217965-.144492-.3763343-.3719439-.4289712-.6313682-.0526368-.2594243.0010304-.5291207.1489712-.7486318.1467316-.2220203.3759089-.3763952.6367947-.4289477s.5319584.0010525.7532053.1489477c.8185913.5415703 1.7784757.8302312 2.76.83.1090291.3598087.1629733.7340468.16 1.11z"></path><path id="Path" d="m35 22c.0033061-2.7600532 2.2399468-4.9966939 5-5 .5522847 0 1-.4477153 1-1s-.4477153-1-1-1c-3.8639376.0049584-6.9950416 3.1360624-7 7 0 .5522847.4477153 1 1 1s1-.4477153 1-1z"></path></g><path id="Path" d="m4.011 17h-.043c-.55170289-.0232597-.98013001-.4892917-.957-1.041.13379403-3.3821955 1.52695487-6.5922435 3.906-9 2.46821636-2.53470881 5.8570873-3.96275988 9.395-3.959.5522847 0 1 .44771525 1 1s-.4477153 1-1 1c-3.0024763-.00117924-5.8776692 1.21259874-7.971 3.365-2.02951486 2.0537052-3.2179691 4.7919294-3.332 7.677-.02249133.5350434-.46248441.9574015-.998.958z" fill="#fa536c"></path><path id="Path" d="m4.806 22c-.41650197 0-.78939131-.2581542-.936-.648-.13333333-.356-.25133333-.7163333-.354-1.081-.11071671-.3480465-.02287924-.7287696.22912752-.9931313s.6280933-.3703071.9810366-.2763627.62659677.3728338.71383588.727494c.088.309.188.617.3.919.09366732.248364.08474679.5237784-.0247961.7655606-.10954288.2417821-.31071939.4300922-.5592039.5234394-.11215277.0410556-.23057047.0623708-.35.063z" fill="#fa536c"></path></g></svg>