<svg id="fi_5208516" fill="currentColor" enable-background="new 0 0 511.999 511.999" viewBox="0 0 511.999 511.999" xmlns="http://www.w3.org/2000/svg"><g><path d="m511.223 246.162c-1.556-5.805-5.278-10.657-10.483-13.662-2.322-1.341-4.786-2.217-7.285-2.662 2.069-4.677 2.489-9.876 1.146-14.885-1.556-5.806-5.278-10.658-10.482-13.662-2.294-1.325-4.76-2.195-7.292-2.649 2.074-4.68 2.496-9.885 1.152-14.899-1.556-5.806-5.278-10.658-10.482-13.662-2.294-1.325-4.76-2.195-7.292-2.649 2.074-4.68 2.496-9.885 1.152-14.899-1.556-5.806-5.278-10.658-10.482-13.662-5.206-3.005-11.271-3.806-17.073-2.246-.14.038-.272.092-.411.132.131-11.921-2.865-23.872-9.005-34.507l-35.636-61.723c-6.203-10.742-19.99-14.437-30.735-8.234-2.293 1.323-4.277 3.022-5.936 4.986-6.686-9.148-19.369-11.988-29.405-6.196-2.32 1.34-4.31 3.035-5.943 4.975-6.689-9.139-19.367-11.975-29.395-6.185-2.322 1.341-4.313 3.037-5.948 4.979-3.016-4.13-7.309-7.093-12.319-8.436-5.805-1.556-11.869-.758-17.072 2.248-5.206 3.004-8.929 7.856-10.484 13.662-.038.141-.057.283-.092.424-10.258-6.076-22.105-9.457-34.384-9.457h-71.27c-12.406 0-22.5 10.094-22.5 22.5 0 2.679.473 5.25 1.336 7.635-11.26 1.224-20.054 10.785-20.054 22.365 0 2.679.473 5.25 1.336 7.635-11.26 1.224-20.054 10.785-20.054 22.365 0 2.679.473 5.25 1.336 7.635-11.259 1.224-20.053 10.785-20.053 22.365 0 6.358 2.656 12.105 6.911 16.201-10.391 5.846-19.243 14.415-25.382 25.049l-35.633 61.72c-6.203 10.744-2.51 24.531 8.236 30.736 2.323 1.341 4.788 2.21 7.287 2.655-2.072 4.678-2.492 9.88-1.149 14.892 1.556 5.806 5.278 10.658 10.483 13.662 2.293 1.324 4.754 2.21 7.284 2.665-2.068 4.676-2.488 9.875-1.146 14.883 1.556 5.806 5.278 10.658 10.483 13.662 2.293 1.324 4.754 2.21 7.284 2.665-2.068 4.676-2.488 9.875-1.146 14.883 1.556 5.806 5.278 10.658 10.483 13.662 3.467 2.002 7.315 3.024 11.214 3.024 1.954 0 3.922-.257 5.859-.776.141-.038.274-.092.413-.133-.133 11.922 2.863 23.872 9.002 34.506l35.635 61.723c4.163 7.209 11.741 11.244 19.523 11.244 3.814 0 7.678-.97 11.212-3.01 2.323-1.341 4.315-3.039 5.951-4.982 4.332 5.919 11.167 9.202 18.177 9.202 3.814 0 7.678-.97 11.212-3.01 2.296-1.325 4.282-3.027 5.943-4.995 4.331 5.927 11.169 9.214 18.185 9.214 3.813-.001 7.679-.97 11.213-3.01 2.321-1.341 4.312-3.037 5.946-4.979 3.016 4.13 7.309 7.093 12.318 8.436 1.938.52 3.905.776 5.86.776 3.898 0 7.746-1.022 11.212-3.024 5.206-3.004 8.929-7.856 10.484-13.662.038-.141.057-.283.092-.424 10.258 6.076 22.105 9.457 34.384 9.457h71.27c12.406 0 22.5-10.094 22.5-22.5 0-2.679-.473-5.25-1.336-7.635 11.26-1.224 20.054-10.785 20.054-22.365 0-2.679-.473-5.25-1.336-7.635 11.26-1.224 20.054-10.785 20.054-22.365 0-2.679-.473-5.25-1.336-7.635 11.259-1.224 20.053-10.785 20.053-22.365 0-6.358-2.656-12.103-6.911-16.198 10.391-5.847 19.242-14.417 25.382-25.052l35.635-61.721c3.007-5.203 3.806-11.266 2.25-17.072zm-255.222-199.954c.519-1.935 1.76-3.552 3.496-4.554 1.734-1.001 3.754-1.268 5.689-.75 1.936.519 3.553 1.76 4.555 3.495l9.357 16.206c.002.004 10.999 19.05 10.999 19.05 2.072 3.588 6.659 4.815 10.245 2.745 3.587-2.071 4.816-6.658 2.745-10.245l-11.007-19.063c-2.053-3.579-.82-8.164 2.756-10.229 3.581-2.068 8.177-.835 10.245 2.746l9.353 16.199c.009.016 10.304 17.846 10.304 17.846 1.389 2.406 3.91 3.751 6.502 3.751 1.272 0 2.563-.324 3.743-1.006 3.587-2.071 4.816-6.658 2.745-10.245l-10.292-17.826c-1.008-1.746-1.274-3.767-.755-5.701.519-1.936 1.76-3.553 3.493-4.555 3.582-2.067 8.178-.837 10.246 2.745l9.357 16.206c.005.009 9.602 16.631 9.602 16.631 1.39 2.406 3.91 3.751 6.502 3.751 1.272 0 2.563-.324 3.743-1.006 3.587-2.071 4.816-6.658 2.745-10.245l-9.593-16.615c-1.008-1.747-1.274-3.768-.756-5.702.519-1.936 1.76-3.553 3.495-4.555 3.578-2.065 8.177-.837 10.245 2.745l35.635 61.722c9.35 16.195 9.352 36.313.004 52.502-.002.005-36.806 63.752-36.806 63.752l-16.663-28.857c-.915-1.585-2.379-2.781-4.114-3.362l-41.757-13.98c-6.714-2.248-12.808-5.766-18.111-10.457l-18.153-16.054h26.505c2.68 0 5.155-1.43 6.495-3.75s1.34-5.18 0-7.5l-43.301-74.999c-.003-.005-8.743-15.144-8.743-15.144-1.002-1.736-1.267-3.758-.75-5.692zm-.008 309.986-28.017-24.778c-6.821-6.032-14.656-10.556-23.288-13.445l-35.467-11.874 7.45-36.653c1.813-8.921 1.813-17.968 0-26.89l-7.45-36.652 35.467-11.874c8.635-2.892 16.47-7.416 23.287-13.445l28.017-24.778 28.018 24.778c6.819 6.031 14.654 10.555 23.287 13.445l35.467 11.874-7.45 36.653c-1.813 8.921-1.813 17.968 0 26.89l7.451 36.652-35.468 11.875c-8.635 2.892-16.47 7.416-23.287 13.445zm-177.136 1.2c-1.002 1.734-2.619 2.976-4.554 3.494-1.935.517-3.957.251-5.692-.75-1.734-1.002-2.976-2.619-3.494-4.554s-.252-3.956.75-5.691l20.355-35.257c2.071-3.587.842-8.174-2.745-10.245-3.589-2.071-8.175-.843-10.245 2.745l-10.999 19.05c-1.002 1.733-2.618 2.973-4.552 3.492-1.935.517-3.957.251-5.692-.75-1.734-1.002-2.976-2.619-3.494-4.554s-.252-3.956.75-5.691l19.657-34.047c2.071-3.587.842-8.174-2.745-10.245-3.589-2.07-8.176-.844-10.245 2.745l-10.299 17.838c-1.002 1.734-2.619 2.975-4.553 3.494-1.934.517-3.958.251-5.692-.75-1.734-1.002-2.976-2.619-3.494-4.554s-.252-3.956.75-5.691l9.354-16.202c.007-.012 9.604-16.635 9.604-16.635 2.071-3.587.842-8.174-2.745-10.245-3.589-2.071-8.175-.843-10.245 2.745l-9.603 16.633c-2.069 3.577-6.665 4.806-10.241 2.74-3.582-2.068-4.814-6.664-2.746-10.245l35.635-61.722c9.348-16.191 26.77-26.25 45.467-26.25h26.603c4.143 0 7.5-3.357 7.5-7.5s-3.357-7.5-7.5-7.5h-44.091c-4.136 0-7.5-3.364-7.5-7.5s3.364-7.5 7.5-7.5h40.711c4.143 0 7.5-3.357 7.5-7.5s-3.357-7.5-7.5-7.5h-21.995c-4.136 0-7.5-3.364-7.5-7.5s3.364-7.5 7.5-7.5h39.314c4.143 0 7.5-3.357 7.5-7.5s-3.357-7.5-7.5-7.5h-20.596c-4.136 0-7.5-3.364-7.5-7.5s3.364-7.5 7.5-7.5h37.917c4.143 0 7.5-3.357 7.5-7.5s-3.357-7.5-7.5-7.5h-19.199c-4.136 0-7.5-3.364-7.5-7.5s3.364-7.5 7.5-7.5h71.27c18.695 0 36.115 10.057 45.464 26.245l36.808 63.755h-33.317c-1.83 0-3.598.669-4.969 1.882l-32.985 29.172c-5.302 4.69-11.396 8.208-18.112 10.457l-22.979 7.694 13.253-22.954c1.34-2.32 1.34-5.18 0-7.5s-3.815-3.75-6.495-3.75h-30c-4.143 0-7.5 3.357-7.5 7.5s3.357 7.5 7.5 7.5h17.01l-16.659 28.854c-.915 1.585-1.219 3.45-.854 5.244l8.771 43.151c1.41 6.939 1.41 13.977 0 20.915l-4.827 23.748-13.253-22.955c-1.34-2.32-3.815-3.75-6.495-3.75s-5.155 1.43-6.495 3.75l-43.297 74.992c-.02.032-8.75 15.152-8.75 15.152zm177.127 108.398c-.519 1.935-1.76 3.552-3.496 4.554-1.733 1.001-3.753 1.269-5.689.75s-3.553-1.76-4.555-3.495l-9.357-16.206c-.002-.004-10.999-19.05-10.999-19.05-2.072-3.588-6.659-4.814-10.245-2.745-3.587 2.071-4.816 6.658-2.745 10.245l11.007 19.063c2.053 3.579.82 8.164-2.754 10.229-3.584 2.065-8.178.835-10.246-2.746l-19.657-34.046c-2.072-3.588-6.659-4.814-10.245-2.745-3.587 2.071-4.816 6.658-2.745 10.245l10.285 17.814c1.014 1.759 1.28 3.779.762 5.714-.519 1.936-1.76 3.553-3.494 4.555-3.585 2.064-8.179.836-10.246-2.745l-9.347-16.188c-.019-.032-9.612-16.648-9.612-16.648-2.072-3.588-6.659-4.814-10.245-2.745-3.587 2.071-4.816 6.658-2.745 10.245l9.606 16.638c2.059 3.58.827 8.168-2.752 10.234-3.578 2.064-8.177.837-10.245-2.745l-35.635-61.724c-9.347-16.191-9.348-36.307-.001-52.498l36.808-63.752 16.658 28.854c.915 1.585 2.378 2.781 4.114 3.362l41.757 13.98c6.714 2.247 12.808 5.766 18.112 10.457l18.152 16.054h-26.506c-2.68 0-5.155 1.43-6.495 3.75s-1.34 5.18 0 7.5l43.3 74.998c.004.006 8.744 15.145 8.744 15.145 1.003 1.736 1.268 3.757.751 5.692zm176.386-107.08c4.136 0 7.5 3.362 7.5 7.495 0 4.136-3.364 7.5-7.5 7.5h-40.71c-4.143 0-7.5 3.357-7.5 7.5s3.357 7.5 7.5 7.5h21.993c4.136 0 7.5 3.364 7.5 7.5s-3.364 7.5-7.5 7.5h-39.314c-4.143 0-7.5 3.357-7.5 7.5s3.357 7.5 7.5 7.5h20.597c4.136 0 7.5 3.364 7.5 7.5s-3.364 7.5-7.5 7.5h-37.917c-4.143 0-7.5 3.357-7.5 7.5s3.357 7.5 7.5 7.5h19.199c4.136 0 7.5 3.364 7.5 7.5s-3.364 7.5-7.5 7.5h-71.27c-18.695 0-36.115-10.057-45.464-26.245l-36.808-63.755h33.317c1.83 0 3.598-.669 4.969-1.882l32.985-29.172c5.302-4.69 11.396-8.208 18.112-10.457l22.981-7.694-13.255 22.96c-1.34 2.321-1.34 5.18 0 7.5s3.815 3.75 6.495 3.75zm63.615-102.977-35.635 61.722c-9.35 16.194-26.771 26.255-45.467 26.255h-73.613l16.66-28.858c.915-1.585 1.219-3.45.854-5.244l-8.771-43.151c-1.41-6.939-1.41-13.977 0-20.915l4.828-23.75 13.257 22.96c1.34 2.32 3.815 3.75 6.495 3.75s5.155-1.43 6.495-3.75l52.044-90.144c1.002-1.736 2.619-2.978 4.554-3.497 1.938-.519 3.955-.252 5.688.749 1.734 1.002 2.976 2.619 3.494 4.554s.252 3.956-.75 5.691l-20.355 35.257c-2.071 3.587-.842 8.174 2.745 10.245 3.588 2.069 8.175.842 10.245-2.745l10.993-19.041c1.006-1.741 2.623-2.982 4.558-3.501 1.932-.519 3.955-.251 5.691.75 1.734 1.002 2.976 2.619 3.494 4.554s.252 3.956-.75 5.691l-19.656 34.047c-2.071 3.587-.842 8.174 2.745 10.245 1.182.682 2.471 1.006 3.743 1.006 2.592 0 5.113-1.345 6.502-3.751l10.297-17.836c1.003-1.737 2.62-2.978 4.555-3.496 1.933-.519 3.955-.251 5.691.75 1.734 1.002 2.976 2.619 3.494 4.554s.252 3.956-.75 5.691l-9.353 16.199c-.009.015-9.605 16.638-9.605 16.638-2.071 3.587-.842 8.174 2.745 10.245 1.182.682 2.471 1.006 3.743 1.006 2.592 0 5.113-1.345 6.502-3.751l9.603-16.633c2.07-3.576 6.664-4.806 10.242-2.74 1.735 1.002 2.977 2.619 3.495 4.555.52 1.933.255 3.954-.747 5.689z"></path></g></svg>